<mxfile host="app.diagrams.net" modified="2023-06-19T18:55:24.633Z" agent="Mozilla/5.0 (Windows NT 10.0; Win64; x64) AppleWebKit/537.36 (KHTML, like Gecko) Chrome/114.0.0.0 Safari/537.36 Edg/114.0.1823.51" etag="3lcN33EkRysErKyTYVmY" version="21.5.0" type="device">
  <diagram name="Page-1" id="13e1069c-82ec-6db2-03f1-153e76fe0fe0">
    <mxGraphModel dx="1379" dy="764" grid="1" gridSize="10" guides="1" tooltips="1" connect="1" arrows="1" fold="1" page="1" pageScale="1" pageWidth="1100" pageHeight="850" background="none" math="0" shadow="0">
      <root>
        <mxCell id="0" />
        <mxCell id="1" parent="0" />
        <mxCell id="7baba1c4bc27f4b0-2" value=":AppServer" style="shape=umlLifeline;perimeter=lifelinePerimeter;whiteSpace=wrap;html=1;container=1;collapsible=0;recursiveResize=0;outlineConnect=0;rounded=1;shadow=0;comic=0;labelBackgroundColor=none;strokeWidth=1;fontFamily=Verdana;fontSize=12;align=center;" parent="1" vertex="1">
          <mxGeometry x="1040" y="70" width="100" height="1370" as="geometry" />
        </mxCell>
        <mxCell id="7baba1c4bc27f4b0-10" value="" style="html=1;points=[];perimeter=orthogonalPerimeter;rounded=0;shadow=0;comic=0;labelBackgroundColor=none;strokeWidth=1;fontFamily=Verdana;fontSize=12;align=center;" parent="7baba1c4bc27f4b0-2" vertex="1">
          <mxGeometry x="45" y="90" width="10" height="1000" as="geometry" />
        </mxCell>
        <mxCell id="iBCXMxVi8sJkSbhDiFyK-2" value="log" style="html=1;verticalAlign=bottom;endArrow=block;labelBackgroundColor=none;fontFamily=Verdana;fontSize=12;edgeStyle=elbowEdgeStyle;elbow=vertical;" parent="7baba1c4bc27f4b0-2" source="iBCXMxVi8sJkSbhDiFyK-13" edge="1">
          <mxGeometry x="-0.5775" relative="1" as="geometry">
            <mxPoint x="-85" y="330" as="sourcePoint" />
            <mxPoint x="-520" y="330" as="targetPoint" />
            <mxPoint as="offset" />
          </mxGeometry>
        </mxCell>
        <mxCell id="dntAlPhx-5EGQUIyfZYk-62" value="" style="html=1;points=[];perimeter=orthogonalPerimeter;outlineConnect=0;targetShapes=umlLifeline;portConstraint=eastwest;newEdgeStyle={&quot;edgeStyle&quot;:&quot;elbowEdgeStyle&quot;,&quot;elbow&quot;:&quot;vertical&quot;,&quot;curved&quot;:0,&quot;rounded&quot;:0};" parent="7baba1c4bc27f4b0-2" vertex="1">
          <mxGeometry x="35" y="410" width="10" height="40" as="geometry" />
        </mxCell>
        <mxCell id="dntAlPhx-5EGQUIyfZYk-66" value="connect" style="html=1;verticalAlign=bottom;endArrow=block;labelBackgroundColor=none;fontFamily=Verdana;fontSize=12;elbow=vertical;edgeStyle=orthogonalEdgeStyle;curved=1;" parent="7baba1c4bc27f4b0-2" edge="1">
          <mxGeometry x="0.3333" y="-45" relative="1" as="geometry">
            <mxPoint x="45" y="810" as="sourcePoint" />
            <mxPoint x="30" y="850" as="targetPoint" />
            <Array as="points">
              <mxPoint x="5" y="810" />
              <mxPoint x="5" y="848" />
            </Array>
            <mxPoint as="offset" />
          </mxGeometry>
        </mxCell>
        <mxCell id="dntAlPhx-5EGQUIyfZYk-67" value="" style="html=1;verticalAlign=bottom;endArrow=block;labelBackgroundColor=none;fontFamily=Verdana;fontSize=12;elbow=vertical;edgeStyle=orthogonalEdgeStyle;curved=1;" parent="7baba1c4bc27f4b0-2" edge="1">
          <mxGeometry relative="1" as="geometry">
            <mxPoint x="35" y="870" as="sourcePoint" />
            <mxPoint x="45" y="908" as="targetPoint" />
            <Array as="points">
              <mxPoint x="15" y="870" />
              <mxPoint x="15" y="908" />
            </Array>
          </mxGeometry>
        </mxCell>
        <mxCell id="dntAlPhx-5EGQUIyfZYk-79" value="create or take&lt;br&gt;new Server" style="html=1;verticalAlign=bottom;endArrow=block;labelBackgroundColor=none;fontFamily=Verdana;fontSize=12;edgeStyle=elbowEdgeStyle;elbow=vertical;dashed=1;dashPattern=1 1;" parent="7baba1c4bc27f4b0-2" edge="1">
          <mxGeometry relative="1" as="geometry">
            <mxPoint x="55" y="860" as="sourcePoint" />
            <Array as="points">
              <mxPoint x="60" y="860" />
            </Array>
            <mxPoint x="200" y="860" as="targetPoint" />
          </mxGeometry>
        </mxCell>
        <mxCell id="dntAlPhx-5EGQUIyfZYk-85" value="update String (in game/lobby msg)" style="html=1;verticalAlign=bottom;endArrow=block;labelBackgroundColor=none;fontFamily=Verdana;fontSize=12;edgeStyle=elbowEdgeStyle;elbow=vertical;" parent="7baba1c4bc27f4b0-2" edge="1">
          <mxGeometry x="0.3469" relative="1" as="geometry">
            <mxPoint x="200" y="1250" as="sourcePoint" />
            <mxPoint x="-290" y="1250" as="targetPoint" />
            <mxPoint as="offset" />
          </mxGeometry>
        </mxCell>
        <mxCell id="dntAlPhx-5EGQUIyfZYk-86" value="" style="html=1;verticalAlign=bottom;endArrow=block;labelBackgroundColor=none;fontFamily=Verdana;fontSize=12;elbow=vertical;edgeStyle=orthogonalEdgeStyle;curved=1;startArrow=diamond;startFill=1;" parent="7baba1c4bc27f4b0-2" target="dntAlPhx-5EGQUIyfZYk-87" edge="1">
          <mxGeometry x="0.4857" y="75" relative="1" as="geometry">
            <mxPoint x="-290" y="1250" as="sourcePoint" />
            <mxPoint x="-370" y="1280" as="targetPoint" />
            <Array as="points">
              <mxPoint x="-250" y="1250" />
              <mxPoint x="-250" y="1212" />
              <mxPoint x="-340" y="1212" />
              <mxPoint x="-340" y="1280" />
            </Array>
            <mxPoint x="75" y="-73" as="offset" />
          </mxGeometry>
        </mxCell>
        <mxCell id="7baba1c4bc27f4b0-3" value=":Server" style="shape=umlLifeline;perimeter=lifelinePerimeter;whiteSpace=wrap;html=1;container=1;collapsible=0;recursiveResize=0;outlineConnect=0;rounded=1;shadow=0;comic=0;labelBackgroundColor=none;strokeWidth=1;fontFamily=Verdana;fontSize=12;align=center;" parent="1" vertex="1">
          <mxGeometry x="1200" y="70" width="100" height="1370" as="geometry" />
        </mxCell>
        <mxCell id="7baba1c4bc27f4b0-8" value=":AppClientRMI" style="shape=umlLifeline;perimeter=lifelinePerimeter;whiteSpace=wrap;html=1;container=1;collapsible=0;recursiveResize=0;outlineConnect=0;rounded=1;shadow=0;comic=0;labelBackgroundColor=none;strokeWidth=1;fontFamily=Verdana;fontSize=12;align=center;" parent="1" vertex="1">
          <mxGeometry x="100" y="80" width="100" height="1360" as="geometry" />
        </mxCell>
        <mxCell id="7baba1c4bc27f4b0-9" value="" style="html=1;points=[];perimeter=orthogonalPerimeter;rounded=0;shadow=0;comic=0;labelBackgroundColor=none;strokeWidth=1;fontFamily=Verdana;fontSize=12;align=center;" parent="7baba1c4bc27f4b0-8" vertex="1">
          <mxGeometry x="45" y="80" width="10" height="1280" as="geometry" />
        </mxCell>
        <mxCell id="iBCXMxVi8sJkSbhDiFyK-1" value="logginToAppServer" style="html=1;verticalAlign=bottom;endArrow=block;labelBackgroundColor=none;fontFamily=Verdana;fontSize=12;elbow=vertical;edgeStyle=orthogonalEdgeStyle;curved=1;" parent="7baba1c4bc27f4b0-8" target="iBCXMxVi8sJkSbhDiFyK-13" edge="1">
          <mxGeometry x="-0.115" y="60" relative="1" as="geometry">
            <mxPoint x="60" y="270" as="sourcePoint" />
            <mxPoint x="60" y="310" as="targetPoint" />
            <Array as="points">
              <mxPoint x="100" y="270" />
              <mxPoint x="100" y="308" />
            </Array>
            <mxPoint as="offset" />
          </mxGeometry>
        </mxCell>
        <mxCell id="iBCXMxVi8sJkSbhDiFyK-13" value="" style="html=1;points=[];perimeter=orthogonalPerimeter;outlineConnect=0;targetShapes=umlLifeline;portConstraint=eastwest;newEdgeStyle={&quot;edgeStyle&quot;:&quot;elbowEdgeStyle&quot;,&quot;elbow&quot;:&quot;vertical&quot;,&quot;curved&quot;:0,&quot;rounded&quot;:0};" parent="7baba1c4bc27f4b0-8" vertex="1">
          <mxGeometry x="55" y="300" width="10" height="80" as="geometry" />
        </mxCell>
        <mxCell id="dntAlPhx-5EGQUIyfZYk-26" value="create server stub" style="endArrow=classic;dashed=1;html=1;dashPattern=1 3;strokeWidth=2;rounded=0;endFill=1;" parent="7baba1c4bc27f4b0-8" target="dntAlPhx-5EGQUIyfZYk-30" edge="1">
          <mxGeometry x="-0.4046" y="10" width="50" height="50" relative="1" as="geometry">
            <mxPoint x="60" y="80" as="sourcePoint" />
            <mxPoint x="269.5" y="80" as="targetPoint" />
            <mxPoint as="offset" />
          </mxGeometry>
        </mxCell>
        <mxCell id="7baba1c4bc27f4b0-40" value="The AppClient of the user" style="shape=note;whiteSpace=wrap;html=1;size=11;verticalAlign=top;align=left;spacingTop=-6;rounded=0;shadow=0;comic=0;labelBackgroundColor=none;strokeWidth=1;fontFamily=Verdana;fontSize=12" parent="1" vertex="1">
          <mxGeometry x="100" y="30" width="100" height="35" as="geometry" />
        </mxCell>
        <mxCell id="7baba1c4bc27f4b0-41" value="The Server&lt;br&gt;app" style="shape=note;whiteSpace=wrap;html=1;size=14;verticalAlign=top;align=left;spacingTop=-6;rounded=0;shadow=0;comic=0;labelBackgroundColor=none;strokeWidth=1;fontFamily=Verdana;fontSize=12" parent="1" vertex="1">
          <mxGeometry x="1040" y="20" width="100" height="35" as="geometry" />
        </mxCell>
        <mxCell id="7baba1c4bc27f4b0-42" value="The match server object of this match" style="shape=note;whiteSpace=wrap;html=1;size=14;verticalAlign=top;align=left;spacingTop=-6;rounded=0;shadow=0;comic=0;labelBackgroundColor=none;strokeWidth=1;fontFamily=Verdana;fontSize=12" parent="1" vertex="1">
          <mxGeometry x="1200" y="10" width="100" height="50" as="geometry" />
        </mxCell>
        <mxCell id="iBCXMxVi8sJkSbhDiFyK-15" value="" style="html=1;verticalAlign=bottom;endArrow=block;labelBackgroundColor=none;fontFamily=Verdana;fontSize=12;elbow=vertical;edgeStyle=orthogonalEdgeStyle;curved=1;" parent="1" edge="1">
          <mxGeometry relative="1" as="geometry">
            <mxPoint x="170" y="450" as="sourcePoint" />
            <mxPoint x="160" y="488" as="targetPoint" />
            <Array as="points">
              <mxPoint x="190" y="450" />
              <mxPoint x="190" y="488" />
            </Array>
          </mxGeometry>
        </mxCell>
        <mxCell id="iBCXMxVi8sJkSbhDiFyK-18" value=":Client" style="shape=umlLifeline;perimeter=lifelinePerimeter;whiteSpace=wrap;html=1;container=1;collapsible=0;recursiveResize=0;outlineConnect=0;rounded=1;shadow=0;comic=0;labelBackgroundColor=none;strokeWidth=1;fontFamily=Verdana;fontSize=12;align=center;" parent="1" vertex="1">
          <mxGeometry x="320" y="80" width="100" height="1340" as="geometry" />
        </mxCell>
        <mxCell id="dntAlPhx-5EGQUIyfZYk-54" value="return boolean" style="html=1;verticalAlign=bottom;endArrow=open;dashed=1;endSize=8;labelBackgroundColor=none;fontFamily=Verdana;fontSize=12;edgeStyle=elbowEdgeStyle;elbow=vertical;" parent="iBCXMxVi8sJkSbhDiFyK-18" edge="1">
          <mxGeometry x="0.3838" relative="1" as="geometry">
            <mxPoint x="-160" y="500" as="targetPoint" />
            <Array as="points">
              <mxPoint x="142" y="500" />
              <mxPoint x="172" y="500" />
            </Array>
            <mxPoint x="197" y="500" as="sourcePoint" />
            <mxPoint as="offset" />
          </mxGeometry>
        </mxCell>
        <mxCell id="dntAlPhx-5EGQUIyfZYk-89" value="return" style="html=1;verticalAlign=bottom;endArrow=open;dashed=1;endSize=8;labelBackgroundColor=none;fontFamily=Verdana;fontSize=12;edgeStyle=elbowEdgeStyle;elbow=vertical;" parent="iBCXMxVi8sJkSbhDiFyK-18" target="iBCXMxVi8sJkSbhDiFyK-18" edge="1">
          <mxGeometry x="0.0932" y="20" relative="1" as="geometry">
            <mxPoint x="70" y="1320" as="targetPoint" />
            <Array as="points">
              <mxPoint x="140" y="1320" />
              <mxPoint x="-742" y="1320" />
            </Array>
            <mxPoint x="205" y="1320" as="sourcePoint" />
            <mxPoint as="offset" />
          </mxGeometry>
        </mxCell>
        <mxCell id="iBCXMxVi8sJkSbhDiFyK-20" value="The Client object of the user" style="shape=note;whiteSpace=wrap;html=1;size=14;verticalAlign=top;align=left;spacingTop=-6;rounded=0;shadow=0;comic=0;labelBackgroundColor=none;strokeWidth=1;fontFamily=Verdana;fontSize=12" parent="1" vertex="1">
          <mxGeometry x="320" y="20" width="100" height="50" as="geometry" />
        </mxCell>
        <mxCell id="dntAlPhx-5EGQUIyfZYk-30" value=":ServerStub" style="shape=umlLifeline;perimeter=lifelinePerimeter;whiteSpace=wrap;html=1;container=1;collapsible=0;recursiveResize=0;outlineConnect=0;rounded=1;shadow=0;comic=0;labelBackgroundColor=none;strokeWidth=1;fontFamily=Verdana;fontSize=12;align=center;" parent="1" vertex="1">
          <mxGeometry x="480" y="80" width="100" height="1360" as="geometry" />
        </mxCell>
        <mxCell id="dntAlPhx-5EGQUIyfZYk-31" value="" style="html=1;points=[];perimeter=orthogonalPerimeter;rounded=0;shadow=0;comic=0;labelBackgroundColor=none;strokeWidth=1;fontFamily=Verdana;fontSize=12;align=center;" parent="dntAlPhx-5EGQUIyfZYk-30" vertex="1">
          <mxGeometry x="45" y="80" width="10" height="1280" as="geometry" />
        </mxCell>
        <mxCell id="dntAlPhx-5EGQUIyfZYk-37" value="" style="html=1;points=[];perimeter=orthogonalPerimeter;outlineConnect=0;targetShapes=umlLifeline;portConstraint=eastwest;newEdgeStyle={&quot;edgeStyle&quot;:&quot;elbowEdgeStyle&quot;,&quot;elbow&quot;:&quot;vertical&quot;,&quot;curved&quot;:0,&quot;rounded&quot;:0};" parent="dntAlPhx-5EGQUIyfZYk-30" vertex="1">
          <mxGeometry x="55" y="110" width="10" height="80" as="geometry" />
        </mxCell>
        <mxCell id="dntAlPhx-5EGQUIyfZYk-38" value="createConnection" style="html=1;verticalAlign=bottom;endArrow=block;labelBackgroundColor=none;fontFamily=Verdana;fontSize=12;elbow=vertical;edgeStyle=orthogonalEdgeStyle;curved=1;" parent="dntAlPhx-5EGQUIyfZYk-30" edge="1">
          <mxGeometry x="-0.2381" y="35" relative="1" as="geometry">
            <mxPoint x="55" y="90" as="sourcePoint" />
            <mxPoint x="70" y="130" as="targetPoint" />
            <Array as="points">
              <mxPoint x="95" y="90" />
              <mxPoint x="95" y="128" />
            </Array>
            <mxPoint as="offset" />
          </mxGeometry>
        </mxCell>
        <mxCell id="dntAlPhx-5EGQUIyfZYk-40" value="" style="html=1;verticalAlign=bottom;endArrow=block;labelBackgroundColor=none;fontFamily=Verdana;fontSize=12;elbow=vertical;edgeStyle=orthogonalEdgeStyle;curved=1;" parent="dntAlPhx-5EGQUIyfZYk-30" edge="1">
          <mxGeometry relative="1" as="geometry">
            <mxPoint x="70" y="180" as="sourcePoint" />
            <mxPoint x="60" y="218" as="targetPoint" />
            <Array as="points">
              <mxPoint x="90" y="180" />
              <mxPoint x="90" y="218" />
            </Array>
          </mxGeometry>
        </mxCell>
        <mxCell id="dntAlPhx-5EGQUIyfZYk-43" value="send String (nickname)" style="html=1;verticalAlign=bottom;startArrow=oval;startFill=1;endArrow=block;startSize=8;edgeStyle=elbowEdgeStyle;elbow=vertical;curved=0;rounded=0;" parent="dntAlPhx-5EGQUIyfZYk-30" edge="1">
          <mxGeometry width="60" relative="1" as="geometry">
            <mxPoint x="60" y="340" as="sourcePoint" />
            <mxPoint x="240" y="340" as="targetPoint" />
          </mxGeometry>
        </mxCell>
        <mxCell id="dntAlPhx-5EGQUIyfZYk-74" value="" style="html=1;points=[];perimeter=orthogonalPerimeter;outlineConnect=0;targetShapes=umlLifeline;portConstraint=eastwest;newEdgeStyle={&quot;edgeStyle&quot;:&quot;elbowEdgeStyle&quot;,&quot;elbow&quot;:&quot;vertical&quot;,&quot;curved&quot;:0,&quot;rounded&quot;:0};" parent="dntAlPhx-5EGQUIyfZYk-30" vertex="1">
          <mxGeometry x="55" y="1100" width="10" height="80" as="geometry" />
        </mxCell>
        <mxCell id="dntAlPhx-5EGQUIyfZYk-75" value="startGame" style="html=1;verticalAlign=bottom;endArrow=block;labelBackgroundColor=none;fontFamily=Verdana;fontSize=12;elbow=vertical;edgeStyle=orthogonalEdgeStyle;curved=1;" parent="dntAlPhx-5EGQUIyfZYk-30" edge="1">
          <mxGeometry x="0.1429" y="40" relative="1" as="geometry">
            <mxPoint x="60" y="1090" as="sourcePoint" />
            <mxPoint x="75" y="1130" as="targetPoint" />
            <Array as="points">
              <mxPoint x="100" y="1090" />
              <mxPoint x="100" y="1128" />
            </Array>
            <mxPoint as="offset" />
          </mxGeometry>
        </mxCell>
        <mxCell id="dntAlPhx-5EGQUIyfZYk-77" value="" style="html=1;verticalAlign=bottom;endArrow=block;labelBackgroundColor=none;fontFamily=Verdana;fontSize=12;elbow=vertical;edgeStyle=orthogonalEdgeStyle;curved=1;" parent="dntAlPhx-5EGQUIyfZYk-30" edge="1">
          <mxGeometry relative="1" as="geometry">
            <mxPoint x="65" y="1170" as="sourcePoint" />
            <mxPoint x="55" y="1208" as="targetPoint" />
            <Array as="points">
              <mxPoint x="85" y="1170" />
              <mxPoint x="85" y="1208" />
            </Array>
          </mxGeometry>
        </mxCell>
        <mxCell id="dntAlPhx-5EGQUIyfZYk-32" value="The server stub that establish the socket connection" style="shape=note;whiteSpace=wrap;html=1;size=8;verticalAlign=top;align=left;spacingTop=-6;rounded=0;shadow=0;comic=0;labelBackgroundColor=none;strokeWidth=1;fontFamily=Verdana;fontSize=12" parent="1" vertex="1">
          <mxGeometry x="480" y="10" width="120" height="60" as="geometry" />
        </mxCell>
        <mxCell id="dntAlPhx-5EGQUIyfZYk-33" value=":ClientSkeleton" style="shape=umlLifeline;perimeter=lifelinePerimeter;whiteSpace=wrap;html=1;container=1;collapsible=0;recursiveResize=0;outlineConnect=0;rounded=1;shadow=0;comic=0;labelBackgroundColor=none;strokeWidth=1;fontFamily=Verdana;fontSize=12;align=center;" parent="1" vertex="1">
          <mxGeometry x="680" y="80" width="100" height="1360" as="geometry" />
        </mxCell>
        <mxCell id="dntAlPhx-5EGQUIyfZYk-34" value="" style="html=1;points=[];perimeter=orthogonalPerimeter;rounded=0;shadow=0;comic=0;labelBackgroundColor=none;strokeWidth=1;fontFamily=Verdana;fontSize=12;align=center;" parent="dntAlPhx-5EGQUIyfZYk-33" vertex="1">
          <mxGeometry x="45" y="80" width="10" height="1280" as="geometry" />
        </mxCell>
        <mxCell id="dntAlPhx-5EGQUIyfZYk-39" value="establish connection" style="endArrow=classic;dashed=1;html=1;dashPattern=1 3;strokeWidth=2;rounded=0;endFill=1;startArrow=classic;startFill=1;" parent="dntAlPhx-5EGQUIyfZYk-33" edge="1">
          <mxGeometry x="-0.1429" y="-10" width="50" height="50" relative="1" as="geometry">
            <mxPoint x="-135" y="140" as="sourcePoint" />
            <mxPoint x="40" y="140" as="targetPoint" />
            <mxPoint as="offset" />
          </mxGeometry>
        </mxCell>
        <mxCell id="dntAlPhx-5EGQUIyfZYk-44" value="" style="html=1;points=[];perimeter=orthogonalPerimeter;outlineConnect=0;targetShapes=umlLifeline;portConstraint=eastwest;newEdgeStyle={&quot;edgeStyle&quot;:&quot;elbowEdgeStyle&quot;,&quot;elbow&quot;:&quot;vertical&quot;,&quot;curved&quot;:0,&quot;rounded&quot;:0};" parent="dntAlPhx-5EGQUIyfZYk-33" vertex="1">
          <mxGeometry x="55" y="170" width="10" height="190" as="geometry" />
        </mxCell>
        <mxCell id="dntAlPhx-5EGQUIyfZYk-45" value="receiveNicknameToLog" style="html=1;verticalAlign=bottom;endArrow=block;labelBackgroundColor=none;fontFamily=Verdana;fontSize=12;elbow=vertical;edgeStyle=orthogonalEdgeStyle;curved=1;" parent="dntAlPhx-5EGQUIyfZYk-33" edge="1">
          <mxGeometry x="0.4857" y="75" relative="1" as="geometry">
            <mxPoint x="55" y="160" as="sourcePoint" />
            <mxPoint x="70" y="200" as="targetPoint" />
            <Array as="points">
              <mxPoint x="95" y="160" />
              <mxPoint x="95" y="198" />
            </Array>
            <mxPoint x="75" y="-73" as="offset" />
          </mxGeometry>
        </mxCell>
        <mxCell id="dntAlPhx-5EGQUIyfZYk-46" value="" style="html=1;verticalAlign=bottom;endArrow=block;labelBackgroundColor=none;fontFamily=Verdana;fontSize=12;elbow=vertical;edgeStyle=orthogonalEdgeStyle;curved=1;" parent="dntAlPhx-5EGQUIyfZYk-33" edge="1">
          <mxGeometry relative="1" as="geometry">
            <mxPoint x="65" y="345" as="sourcePoint" />
            <mxPoint x="55" y="383" as="targetPoint" />
            <Array as="points">
              <mxPoint x="85" y="345" />
              <mxPoint x="85" y="383" />
            </Array>
          </mxGeometry>
        </mxCell>
        <mxCell id="dntAlPhx-5EGQUIyfZYk-51" value="" style="html=1;points=[];perimeter=orthogonalPerimeter;outlineConnect=0;targetShapes=umlLifeline;portConstraint=eastwest;newEdgeStyle={&quot;edgeStyle&quot;:&quot;elbowEdgeStyle&quot;,&quot;elbow&quot;:&quot;vertical&quot;,&quot;curved&quot;:0,&quot;rounded&quot;:0};" parent="dntAlPhx-5EGQUIyfZYk-33" vertex="1">
          <mxGeometry x="35" y="460" width="10" height="190" as="geometry" />
        </mxCell>
        <mxCell id="dntAlPhx-5EGQUIyfZYk-52" value="" style="html=1;verticalAlign=bottom;endArrow=block;labelBackgroundColor=none;fontFamily=Verdana;fontSize=12;elbow=vertical;edgeStyle=orthogonalEdgeStyle;curved=1;" parent="dntAlPhx-5EGQUIyfZYk-33" edge="1">
          <mxGeometry x="0.4857" y="75" relative="1" as="geometry">
            <mxPoint x="40" y="440" as="sourcePoint" />
            <mxPoint x="25" y="480" as="targetPoint" />
            <Array as="points">
              <mxPoint y="440" />
              <mxPoint y="478" />
            </Array>
            <mxPoint x="75" y="-73" as="offset" />
          </mxGeometry>
        </mxCell>
        <mxCell id="dntAlPhx-5EGQUIyfZYk-55" value="" style="html=1;verticalAlign=bottom;endArrow=block;labelBackgroundColor=none;fontFamily=Verdana;fontSize=12;elbow=vertical;edgeStyle=orthogonalEdgeStyle;curved=1;" parent="dntAlPhx-5EGQUIyfZYk-33" edge="1">
          <mxGeometry relative="1" as="geometry">
            <mxPoint x="35" y="640" as="sourcePoint" />
            <mxPoint x="45" y="678" as="targetPoint" />
            <Array as="points">
              <mxPoint x="15" y="640" />
              <mxPoint x="15" y="678" />
            </Array>
          </mxGeometry>
        </mxCell>
        <mxCell id="dntAlPhx-5EGQUIyfZYk-56" value="" style="html=1;points=[];perimeter=orthogonalPerimeter;outlineConnect=0;targetShapes=umlLifeline;portConstraint=eastwest;newEdgeStyle={&quot;edgeStyle&quot;:&quot;elbowEdgeStyle&quot;,&quot;elbow&quot;:&quot;vertical&quot;,&quot;curved&quot;:0,&quot;rounded&quot;:0};" parent="dntAlPhx-5EGQUIyfZYk-33" vertex="1">
          <mxGeometry x="55" y="510" width="10" height="250" as="geometry" />
        </mxCell>
        <mxCell id="dntAlPhx-5EGQUIyfZYk-58" value="" style="html=1;verticalAlign=bottom;endArrow=block;labelBackgroundColor=none;fontFamily=Verdana;fontSize=12;elbow=vertical;edgeStyle=orthogonalEdgeStyle;curved=1;" parent="dntAlPhx-5EGQUIyfZYk-33" edge="1">
          <mxGeometry x="0.4857" y="75" relative="1" as="geometry">
            <mxPoint x="55" y="490" as="sourcePoint" />
            <mxPoint x="70" y="530" as="targetPoint" />
            <Array as="points">
              <mxPoint x="95" y="490" />
              <mxPoint x="95" y="528" />
            </Array>
            <mxPoint x="75" y="-73" as="offset" />
          </mxGeometry>
        </mxCell>
        <mxCell id="dntAlPhx-5EGQUIyfZYk-82" value="" style="html=1;points=[];perimeter=orthogonalPerimeter;outlineConnect=0;targetShapes=umlLifeline;portConstraint=eastwest;newEdgeStyle={&quot;edgeStyle&quot;:&quot;elbowEdgeStyle&quot;,&quot;elbow&quot;:&quot;vertical&quot;,&quot;curved&quot;:0,&quot;rounded&quot;:0};" parent="dntAlPhx-5EGQUIyfZYk-33" vertex="1">
          <mxGeometry x="55" y="1060" width="10" height="250" as="geometry" />
        </mxCell>
        <mxCell id="dntAlPhx-5EGQUIyfZYk-61" value="" style="html=1;verticalAlign=bottom;endArrow=block;labelBackgroundColor=none;fontFamily=Verdana;fontSize=12;elbow=vertical;edgeStyle=orthogonalEdgeStyle;curved=1;" parent="dntAlPhx-5EGQUIyfZYk-33" edge="1">
          <mxGeometry relative="1" as="geometry">
            <mxPoint x="65" y="750" as="sourcePoint" />
            <mxPoint x="55" y="788" as="targetPoint" />
            <Array as="points">
              <mxPoint x="85" y="750" />
              <mxPoint x="85" y="788" />
            </Array>
          </mxGeometry>
        </mxCell>
        <mxCell id="dntAlPhx-5EGQUIyfZYk-83" value="" style="html=1;verticalAlign=bottom;endArrow=block;labelBackgroundColor=none;fontFamily=Verdana;fontSize=12;elbow=vertical;edgeStyle=orthogonalEdgeStyle;curved=1;" parent="dntAlPhx-5EGQUIyfZYk-33" edge="1">
          <mxGeometry x="0.4857" y="75" relative="1" as="geometry">
            <mxPoint x="60" y="1040" as="sourcePoint" />
            <mxPoint x="75" y="1080" as="targetPoint" />
            <Array as="points">
              <mxPoint x="100" y="1040" />
              <mxPoint x="100" y="1078" />
            </Array>
            <mxPoint x="75" y="-73" as="offset" />
          </mxGeometry>
        </mxCell>
        <mxCell id="dntAlPhx-5EGQUIyfZYk-91" value="" style="html=1;verticalAlign=bottom;endArrow=block;labelBackgroundColor=none;fontFamily=Verdana;fontSize=12;elbow=vertical;edgeStyle=orthogonalEdgeStyle;curved=1;" parent="dntAlPhx-5EGQUIyfZYk-33" edge="1">
          <mxGeometry relative="1" as="geometry">
            <mxPoint x="35" y="1310" as="sourcePoint" />
            <mxPoint x="45" y="1348" as="targetPoint" />
            <Array as="points">
              <mxPoint x="15" y="1310" />
              <mxPoint x="15" y="1348" />
            </Array>
          </mxGeometry>
        </mxCell>
        <mxCell id="dntAlPhx-5EGQUIyfZYk-35" value="The client skeleton that establish the socket connection" style="shape=note;whiteSpace=wrap;html=1;size=0;verticalAlign=top;align=left;spacingTop=-6;rounded=0;shadow=0;comic=0;labelBackgroundColor=none;strokeWidth=1;fontFamily=Verdana;fontSize=12" parent="1" vertex="1">
          <mxGeometry x="680" y="10" width="120" height="60" as="geometry" />
        </mxCell>
        <mxCell id="dntAlPhx-5EGQUIyfZYk-41" value="return ServerStub" style="html=1;verticalAlign=bottom;endArrow=open;dashed=1;endSize=8;labelBackgroundColor=none;fontFamily=Verdana;fontSize=12;edgeStyle=elbowEdgeStyle;elbow=vertical;" parent="1" edge="1">
          <mxGeometry x="0.3838" relative="1" as="geometry">
            <mxPoint x="160" y="320" as="targetPoint" />
            <Array as="points">
              <mxPoint x="462" y="320" />
              <mxPoint x="492" y="320" />
            </Array>
            <mxPoint x="517" y="320" as="sourcePoint" />
            <mxPoint as="offset" />
          </mxGeometry>
        </mxCell>
        <mxCell id="dntAlPhx-5EGQUIyfZYk-47" value="" style="html=1;verticalAlign=bottom;endArrow=block;labelBackgroundColor=none;fontFamily=Verdana;fontSize=12;edgeStyle=elbowEdgeStyle;elbow=vertical;" parent="1" edge="1">
          <mxGeometry x="0.0141" relative="1" as="geometry">
            <mxPoint x="740" y="480" as="sourcePoint" />
            <mxPoint x="1080" y="480" as="targetPoint" />
            <mxPoint as="offset" />
          </mxGeometry>
        </mxCell>
        <mxCell id="dntAlPhx-5EGQUIyfZYk-48" value="establish connection" style="endArrow=classic;dashed=1;html=1;dashPattern=1 3;strokeWidth=2;rounded=0;endFill=1;startArrow=classic;startFill=1;" parent="1" edge="1">
          <mxGeometry y="10" width="50" height="50" relative="1" as="geometry">
            <mxPoint x="740" y="220" as="sourcePoint" />
            <mxPoint x="1080" y="220" as="targetPoint" />
            <mxPoint as="offset" />
          </mxGeometry>
        </mxCell>
        <mxCell id="dntAlPhx-5EGQUIyfZYk-49" value="" style="html=1;verticalAlign=bottom;endArrow=block;labelBackgroundColor=none;fontFamily=Verdana;fontSize=12;edgeStyle=elbowEdgeStyle;elbow=vertical;" parent="1" edge="1">
          <mxGeometry x="-0.5775" relative="1" as="geometry">
            <mxPoint x="1080" y="238" as="sourcePoint" />
            <mxPoint x="740" y="238" as="targetPoint" />
            <mxPoint as="offset" />
          </mxGeometry>
        </mxCell>
        <mxCell id="dntAlPhx-5EGQUIyfZYk-50" value="" style="html=1;verticalAlign=bottom;endArrow=block;labelBackgroundColor=none;fontFamily=Verdana;fontSize=12;edgeStyle=elbowEdgeStyle;elbow=vertical;" parent="1" edge="1">
          <mxGeometry x="-0.5775" relative="1" as="geometry">
            <mxPoint x="1080" y="520" as="sourcePoint" />
            <mxPoint x="740" y="520" as="targetPoint" />
            <mxPoint as="offset" />
          </mxGeometry>
        </mxCell>
        <mxCell id="dntAlPhx-5EGQUIyfZYk-53" value="send boolean" style="html=1;verticalAlign=bottom;startArrow=oval;startFill=1;endArrow=block;startSize=8;edgeStyle=elbowEdgeStyle;elbow=vertical;curved=0;rounded=0;" parent="1" edge="1">
          <mxGeometry width="60" relative="1" as="geometry">
            <mxPoint x="710" y="570" as="sourcePoint" />
            <mxPoint x="540" y="570" as="targetPoint" />
          </mxGeometry>
        </mxCell>
        <mxCell id="dntAlPhx-5EGQUIyfZYk-57" value="setupMatch" style="html=1;verticalAlign=bottom;endArrow=block;labelBackgroundColor=none;fontFamily=Verdana;fontSize=12;edgeStyle=elbowEdgeStyle;elbow=vertical;" parent="1" edge="1">
          <mxGeometry relative="1" as="geometry">
            <mxPoint x="1080" y="570" as="sourcePoint" />
            <mxPoint x="740" y="570" as="targetPoint" />
            <mxPoint as="offset" />
          </mxGeometry>
        </mxCell>
        <mxCell id="dntAlPhx-5EGQUIyfZYk-59" value="send TypeOfMatch" style="html=1;verticalAlign=bottom;startArrow=oval;startFill=1;endArrow=block;startSize=8;edgeStyle=elbowEdgeStyle;elbow=vertical;curved=0;rounded=0;" parent="1" edge="1">
          <mxGeometry width="60" relative="1" as="geometry">
            <mxPoint x="540" y="790" as="sourcePoint" />
            <mxPoint x="720" y="790" as="targetPoint" />
          </mxGeometry>
        </mxCell>
        <mxCell id="dntAlPhx-5EGQUIyfZYk-63" value="log" style="html=1;verticalAlign=bottom;endArrow=block;labelBackgroundColor=none;fontFamily=Verdana;fontSize=12;elbow=vertical;edgeStyle=orthogonalEdgeStyle;curved=1;" parent="1" edge="1">
          <mxGeometry x="-0.0046" y="-23" relative="1" as="geometry">
            <mxPoint x="1050" y="480" as="sourcePoint" />
            <mxPoint x="1070" y="499" as="targetPoint" />
            <Array as="points">
              <mxPoint x="960" y="480" />
              <mxPoint x="960" y="499" />
              <mxPoint x="1060" y="499" />
            </Array>
            <mxPoint x="-20" y="-12" as="offset" />
          </mxGeometry>
        </mxCell>
        <mxCell id="dntAlPhx-5EGQUIyfZYk-64" value="" style="html=1;verticalAlign=bottom;endArrow=block;labelBackgroundColor=none;fontFamily=Verdana;fontSize=12;edgeStyle=elbowEdgeStyle;elbow=vertical;" parent="1" edge="1">
          <mxGeometry x="0.0141" relative="1" as="geometry">
            <mxPoint x="740" y="880" as="sourcePoint" />
            <mxPoint x="1080" y="880" as="targetPoint" />
            <mxPoint as="offset" />
          </mxGeometry>
        </mxCell>
        <mxCell id="dntAlPhx-5EGQUIyfZYk-65" value="" style="html=1;points=[];perimeter=orthogonalPerimeter;outlineConnect=0;targetShapes=umlLifeline;portConstraint=eastwest;newEdgeStyle={&quot;edgeStyle&quot;:&quot;elbowEdgeStyle&quot;,&quot;elbow&quot;:&quot;vertical&quot;,&quot;curved&quot;:0,&quot;rounded&quot;:0};" parent="1" vertex="1">
          <mxGeometry x="1080" y="890" width="10" height="60" as="geometry" />
        </mxCell>
        <mxCell id="dntAlPhx-5EGQUIyfZYk-68" value="sendMatchServer" style="html=1;verticalAlign=bottom;endArrow=block;labelBackgroundColor=none;fontFamily=Verdana;fontSize=12;edgeStyle=elbowEdgeStyle;elbow=vertical;" parent="1" edge="1">
          <mxGeometry relative="1" as="geometry">
            <mxPoint x="1080" y="1000" as="sourcePoint" />
            <mxPoint x="740" y="1000" as="targetPoint" />
            <mxPoint as="offset" />
          </mxGeometry>
        </mxCell>
        <mxCell id="dntAlPhx-5EGQUIyfZYk-69" value="send Server" style="html=1;verticalAlign=bottom;startArrow=oval;startFill=1;endArrow=block;startSize=8;edgeStyle=elbowEdgeStyle;elbow=vertical;curved=0;rounded=0;" parent="1" edge="1">
          <mxGeometry width="60" relative="1" as="geometry">
            <mxPoint x="720" y="1020" as="sourcePoint" />
            <mxPoint x="540" y="1020" as="targetPoint" />
          </mxGeometry>
        </mxCell>
        <mxCell id="dntAlPhx-5EGQUIyfZYk-70" value="return" style="html=1;verticalAlign=bottom;endArrow=open;dashed=1;endSize=8;labelBackgroundColor=none;fontFamily=Verdana;fontSize=12;edgeStyle=elbowEdgeStyle;elbow=vertical;" parent="1" source="dntAlPhx-5EGQUIyfZYk-30" edge="1">
          <mxGeometry x="0.4104" y="20" relative="1" as="geometry">
            <mxPoint x="160" y="1040" as="targetPoint" />
            <Array as="points">
              <mxPoint x="160" y="1040" />
              <mxPoint x="-417" y="1040" />
            </Array>
            <mxPoint x="450" y="1040" as="sourcePoint" />
            <mxPoint as="offset" />
          </mxGeometry>
        </mxCell>
        <mxCell id="dntAlPhx-5EGQUIyfZYk-71" value="create new Client" style="html=1;verticalAlign=bottom;endArrow=block;labelBackgroundColor=none;fontFamily=Verdana;fontSize=12;edgeStyle=elbowEdgeStyle;elbow=vertical;dashed=1;dashPattern=1 1;" parent="1" target="iBCXMxVi8sJkSbhDiFyK-18" edge="1">
          <mxGeometry relative="1" as="geometry">
            <mxPoint x="160" y="1120" as="sourcePoint" />
            <mxPoint x="330" y="1120" as="targetPoint" />
            <Array as="points">
              <mxPoint x="160" y="1120" />
            </Array>
          </mxGeometry>
        </mxCell>
        <mxCell id="dntAlPhx-5EGQUIyfZYk-72" value="" style="html=1;points=[];perimeter=orthogonalPerimeter;rounded=0;shadow=0;comic=0;labelBackgroundColor=none;strokeWidth=1;fontFamily=Verdana;fontSize=12;align=center;" parent="1" vertex="1">
          <mxGeometry x="365" y="1120" width="10" height="320" as="geometry" />
        </mxCell>
        <mxCell id="dntAlPhx-5EGQUIyfZYk-73" value="register" style="html=1;verticalAlign=bottom;endArrow=block;labelBackgroundColor=none;fontFamily=Verdana;fontSize=12;edgeStyle=elbowEdgeStyle;elbow=vertical;" parent="1" edge="1">
          <mxGeometry relative="1" as="geometry">
            <mxPoint x="380" y="1165" as="sourcePoint" />
            <mxPoint x="520" y="1165" as="targetPoint" />
          </mxGeometry>
        </mxCell>
        <mxCell id="dntAlPhx-5EGQUIyfZYk-76" value="send StartGame" style="html=1;verticalAlign=bottom;startArrow=oval;startFill=1;endArrow=block;startSize=8;edgeStyle=elbowEdgeStyle;elbow=vertical;curved=0;rounded=0;" parent="1" edge="1">
          <mxGeometry width="60" relative="1" as="geometry">
            <mxPoint x="550" y="1230" as="sourcePoint" />
            <mxPoint x="720" y="1230" as="targetPoint" />
          </mxGeometry>
        </mxCell>
        <mxCell id="7baba1c4bc27f4b0-13" value="" style="html=1;points=[];perimeter=orthogonalPerimeter;rounded=0;shadow=0;comic=0;labelBackgroundColor=none;strokeWidth=1;fontFamily=Verdana;fontSize=12;align=center;" parent="1" vertex="1">
          <mxGeometry x="1245" y="930" width="10" height="510" as="geometry" />
        </mxCell>
        <mxCell id="iBCXMxVi8sJkSbhDiFyK-35" value="" style="html=1;points=[];perimeter=orthogonalPerimeter;outlineConnect=0;targetShapes=umlLifeline;portConstraint=eastwest;newEdgeStyle={&quot;edgeStyle&quot;:&quot;elbowEdgeStyle&quot;,&quot;elbow&quot;:&quot;vertical&quot;,&quot;curved&quot;:0,&quot;rounded&quot;:0};" parent="1" vertex="1">
          <mxGeometry x="1255" y="970" width="10" height="80" as="geometry" />
        </mxCell>
        <mxCell id="iBCXMxVi8sJkSbhDiFyK-36" value="" style="html=1;verticalAlign=bottom;endArrow=block;labelBackgroundColor=none;fontFamily=Verdana;fontSize=12;elbow=vertical;edgeStyle=orthogonalEdgeStyle;curved=1;" parent="1" target="iBCXMxVi8sJkSbhDiFyK-35" edge="1">
          <mxGeometry relative="1" as="geometry">
            <mxPoint x="1255" y="950" as="sourcePoint" />
            <mxPoint x="1245" y="988" as="targetPoint" />
            <Array as="points">
              <mxPoint x="1290" y="950" />
              <mxPoint x="1290" y="988" />
            </Array>
          </mxGeometry>
        </mxCell>
        <mxCell id="iBCXMxVi8sJkSbhDiFyK-38" value="" style="html=1;verticalAlign=bottom;endArrow=block;labelBackgroundColor=none;fontFamily=Verdana;fontSize=12;elbow=vertical;edgeStyle=orthogonalEdgeStyle;curved=1;" parent="1" edge="1">
          <mxGeometry relative="1" as="geometry">
            <mxPoint x="1265" y="1040" as="sourcePoint" />
            <mxPoint x="1255" y="1078" as="targetPoint" />
            <Array as="points">
              <mxPoint x="1285" y="1040" />
              <mxPoint x="1285" y="1078" />
            </Array>
          </mxGeometry>
        </mxCell>
        <mxCell id="iBCXMxVi8sJkSbhDiFyK-43" value="Add the client to the controller&#39;s clients list and game listeners list" style="shape=note;whiteSpace=wrap;html=1;size=14;verticalAlign=top;align=left;spacingTop=-6;rounded=0;shadow=0;comic=0;labelBackgroundColor=none;strokeWidth=1;fontFamily=Verdana;fontSize=12" parent="1" vertex="1">
          <mxGeometry x="1320" y="990" width="160" height="50" as="geometry" />
        </mxCell>
        <mxCell id="iBCXMxVi8sJkSbhDiFyK-46" style="edgeStyle=elbowEdgeStyle;rounded=0;orthogonalLoop=1;jettySize=auto;html=1;elbow=vertical;curved=0;endArrow=none;endFill=0;dashed=1;dashPattern=1 1;" parent="1" source="iBCXMxVi8sJkSbhDiFyK-35" edge="1">
          <mxGeometry relative="1" as="geometry">
            <mxPoint x="1320" y="1015" as="targetPoint" />
          </mxGeometry>
        </mxCell>
        <mxCell id="dntAlPhx-5EGQUIyfZYk-80" value="return" style="html=1;verticalAlign=bottom;endArrow=open;dashed=1;endSize=8;labelBackgroundColor=none;fontFamily=Verdana;fontSize=12;edgeStyle=elbowEdgeStyle;elbow=vertical;" parent="1" edge="1">
          <mxGeometry x="0.0345" y="20" relative="1" as="geometry">
            <mxPoint x="1100" y="1090" as="targetPoint" />
            <Array as="points">
              <mxPoint x="1180" y="1090" />
              <mxPoint x="298" y="1090" />
            </Array>
            <mxPoint x="1245" y="1090" as="sourcePoint" />
            <mxPoint as="offset" />
          </mxGeometry>
        </mxCell>
        <mxCell id="dntAlPhx-5EGQUIyfZYk-81" value="receive" style="html=1;verticalAlign=bottom;endArrow=block;labelBackgroundColor=none;fontFamily=Verdana;fontSize=12;edgeStyle=elbowEdgeStyle;elbow=vertical;" parent="1" edge="1">
          <mxGeometry relative="1" as="geometry">
            <mxPoint x="1080" y="1119" as="sourcePoint" />
            <mxPoint x="740" y="1119" as="targetPoint" />
            <mxPoint as="offset" />
          </mxGeometry>
        </mxCell>
        <mxCell id="dntAlPhx-5EGQUIyfZYk-84" value="startGame" style="html=1;verticalAlign=bottom;endArrow=block;labelBackgroundColor=none;fontFamily=Verdana;fontSize=12;edgeStyle=elbowEdgeStyle;elbow=vertical;" parent="1" edge="1">
          <mxGeometry x="0.0141" relative="1" as="geometry">
            <mxPoint x="750" y="1260" as="sourcePoint" />
            <mxPoint x="1240" y="1260" as="targetPoint" />
            <mxPoint as="offset" />
          </mxGeometry>
        </mxCell>
        <mxCell id="dntAlPhx-5EGQUIyfZYk-87" value="" style="html=1;points=[];perimeter=orthogonalPerimeter;outlineConnect=0;targetShapes=umlLifeline;portConstraint=eastwest;newEdgeStyle={&quot;edgeStyle&quot;:&quot;elbowEdgeStyle&quot;,&quot;elbow&quot;:&quot;vertical&quot;,&quot;curved&quot;:0,&quot;rounded&quot;:0};" parent="1" vertex="1">
          <mxGeometry x="720" y="1340" width="10" height="60" as="geometry" />
        </mxCell>
        <mxCell id="dntAlPhx-5EGQUIyfZYk-88" value="send String msg" style="html=1;verticalAlign=bottom;startArrow=oval;startFill=1;endArrow=block;startSize=8;edgeStyle=elbowEdgeStyle;elbow=vertical;curved=0;rounded=0;" parent="1" edge="1">
          <mxGeometry width="60" relative="1" as="geometry">
            <mxPoint x="720" y="1370" as="sourcePoint" />
            <mxPoint x="540" y="1370" as="targetPoint" />
          </mxGeometry>
        </mxCell>
      </root>
    </mxGraphModel>
  </diagram>
</mxfile>
